<mxfile host="app.diagrams.net" modified="2024-07-16T16:16:06.206Z" agent="Mozilla/5.0 (Macintosh; Intel Mac OS X 10_15_7) AppleWebKit/537.36 (KHTML, like Gecko) Chrome/114.0.0.0 Safari/537.36 Edg/114.0.1823.41" version="24.6.2" etag="erQyeDrr-gObdCjDOXLe" type="github">
  <diagram name="第 1 页" id="3NrLT51Gdxrj0Vxsez1i">
    <mxGraphModel>
      <root>
        <mxCell id="0" />
        <mxCell id="1" parent="0" />
      </root>
    </mxGraphModel>
  </diagram>
</mxfile>
